<svg width="15" height="15" viewBox="0 0 15 15" fill="none" xmlns="http://www.w3.org/2000/svg">
<g clip-path="url(#clip0_911_730)">
<path d="M8.26603 7.13689L13.8992 3.58414C13.6863 3.25269 13.397 2.97708 13.0557 2.78037L8.90319 0.383594C8.13929 -0.057593 7.198 -0.057593 6.43407 0.383594L2.28152 2.78037C1.98179 2.95356 1.72187 3.18793 1.51868 3.46822L7.34575 7.13691C7.62715 7.3133 7.98463 7.3133 8.26603 7.13689ZM6.70091 3.30129C6.70074 2.76685 7.13387 2.33344 7.66835 2.33327C8.20279 2.3331 8.6362 2.76623 8.63637 3.3007C8.63654 3.83518 8.20341 4.26856 7.66894 4.26873C7.66884 4.26873 7.66874 4.26873 7.66864 4.26873C7.13429 4.26871 6.70106 3.83562 6.70091 3.30129Z" fill="#613FDD"/>
<path d="M7.61287 7.61925C7.44803 7.59389 7.29013 7.53507 7.14888 7.4464L1.32448 3.77921C1.14144 4.13091 1.04585 4.52153 1.04578 4.91799V9.71302C1.046 10.5951 1.51669 11.4102 2.28062 11.8513L6.43316 14.2486C6.79243 14.4563 7.19829 14.5699 7.61317 14.5789C7.61317 14.5789 7.61317 14.5774 7.61317 14.5765L7.61287 7.61925ZM2.54776 11.0098C2.16055 10.7246 1.85667 10.0878 1.85667 9.58284C1.85667 9.07792 2.16205 8.87127 2.54926 9.131C2.94832 9.39784 3.28098 10.0519 3.28098 10.5838C3.28098 11.1157 2.94682 11.3048 2.54776 11.0098ZM5.51615 9.60243C5.12895 9.31602 4.82356 8.68036 4.82356 8.17544C4.82356 7.67053 5.12895 7.46388 5.51615 7.7236C5.91521 7.99044 6.24758 8.64447 6.24758 9.17786C6.24758 9.71123 5.91521 9.89743 5.51615 9.60243Z" fill="#613FDD"/>
<path d="M14.0722 3.90689L8.46154 7.44778C8.31553 7.53962 8.15174 7.59954 7.98096 7.6236V14.5613C8.30583 14.5199 8.61917 14.4142 8.90273 14.2503L13.0553 11.8526C13.8193 11.4115 14.29 10.5963 14.2901 9.71411V4.91937C14.29 4.57024 14.2157 4.22514 14.0722 3.90689ZM9.57573 13.1491C9.18853 13.4077 8.88314 13.2022 8.88314 12.6973C8.88314 12.1924 9.18853 11.5567 9.57573 11.2703C9.97479 10.9739 10.3072 11.1615 10.3072 11.6949C10.3072 12.2283 9.97482 12.8826 9.57573 13.1491ZM9.57573 9.63167C9.18853 9.89019 8.88314 9.68475 8.88314 9.17983C8.88314 8.67492 9.18853 8.03926 9.57573 7.75285C9.97479 7.45755 10.3069 7.64405 10.3069 8.17621C10.3069 8.70838 9.97482 9.36515 9.57573 9.63167ZM12.8225 11.0483C12.4353 11.3068 12.1299 11.1016 12.1299 10.5964C12.1299 10.0912 12.4353 9.45586 12.8225 9.16945C13.2216 8.87445 13.554 9.06065 13.554 9.59402C13.554 10.1274 13.2216 10.7817 12.8225 11.0483ZM12.8225 7.5308C12.4353 7.79082 12.1299 7.58329 12.1299 7.07926C12.1299 6.57523 12.4353 5.93868 12.8225 5.65227C13.2216 5.3558 13.554 5.54377 13.554 6.07684C13.554 6.60991 13.2216 7.26426 12.8225 7.5308Z" fill="#613FDD"/>
</g>
<defs>
<clipPath id="clip0_911_730">
<rect width="14.5277" height="14.5277" fill="white" transform="translate(0.402222 0.053009)"/>
</clipPath>
</defs>
</svg>
