<svg width="15" height="14" viewBox="0 0 15 14" fill="none" xmlns="http://www.w3.org/2000/svg">
<path d="M5.51201 11.9958C5.77401 12.2259 6.04446 12.4632 6.32266 12.7093C6.32455 12.7109 6.32649 12.7126 6.32843 12.7143L7.25391 13.5137C7.37791 13.6209 7.5318 13.6744 7.6857 13.6744C7.83959 13.6744 7.99353 13.6208 8.11753 13.5137L9.04283 12.7143C9.04477 12.7126 9.04667 12.711 9.04856 12.7093C10.8806 11.0891 12.2542 9.84866 13.248 8.6389C14.4087 7.22597 14.9494 5.94844 14.9494 4.61847C14.9494 2.21225 13.0645 0.327423 10.6584 0.327423C9.57695 0.327423 8.50841 0.73464 7.6857 1.44053C6.86277 0.734596 5.79422 0.327423 4.71273 0.327423C2.3065 0.327379 0.421631 2.21225 0.421631 4.61843C0.421631 7.52702 2.4467 9.30481 5.51201 11.9958ZM5.0435 5.67998H6.80477V3.91862H8.56613V5.67998H10.3275V7.44129H8.56613V9.20257H6.80477V7.44129H5.0435V5.67998Z" fill="#613FDD"/>
</svg>
