<svg width="15" height="14" viewBox="0 0 15 14" fill="none" xmlns="http://www.w3.org/2000/svg">
<path d="M12.2055 5.29927H2.58761C2.51869 5.29929 2.45074 5.28302 2.3893 5.25177C2.32787 5.22053 2.27469 5.1752 2.23411 5.11949C2.19353 5.06378 2.1667 4.99926 2.15581 4.9312C2.14491 4.86315 2.15026 4.79348 2.17142 4.72788L3.58 0.356125C3.6084 0.268089 3.66399 0.19133 3.73878 0.13689C3.81356 0.0824499 3.90369 0.0531348 3.99619 0.0531616H10.7969C10.8894 0.0531348 10.9795 0.0824499 11.0543 0.13689C11.1291 0.19133 11.1847 0.268089 11.2131 0.356125L12.6217 4.72788C12.6428 4.79348 12.6482 4.86315 12.6373 4.9312C12.6264 4.99926 12.5996 5.06378 12.559 5.11949C12.5184 5.1752 12.4652 5.22053 12.4038 5.25177C12.3424 5.28302 12.2744 5.29929 12.2055 5.29927ZM13.9542 7.04798H0.838909C0.722963 7.04798 0.611766 7.00192 0.529779 6.91993C0.447793 6.83794 0.401733 6.72675 0.401733 6.6108C0.401733 6.49485 0.447793 6.38366 0.529779 6.30167C0.611766 6.21968 0.722963 6.17362 0.838909 6.17362H13.9542C14.0701 6.17362 14.1813 6.21968 14.2633 6.30167C14.3453 6.38366 14.3914 6.49485 14.3914 6.6108C14.3914 6.72675 14.3453 6.83794 14.2633 6.91993C14.1813 7.00192 14.0701 7.04798 13.9542 7.04798ZM10.894 13.1684C10.3752 13.1684 9.86802 13.0146 9.43666 12.7264C9.0053 12.4381 8.6691 12.0285 8.47057 11.5492C8.27203 11.0699 8.22009 10.5425 8.3213 10.0336C8.42251 9.52483 8.67233 9.05744 9.03917 8.6906C9.40602 8.32376 9.8734 8.07394 10.3822 7.97273C10.891 7.87152 11.4185 7.92346 11.8978 8.12199C12.3771 8.32053 12.7867 8.65673 13.0749 9.08809C13.3632 9.51945 13.517 10.0266 13.517 10.5454C13.5163 11.2408 13.2397 11.9076 12.748 12.3994C12.2562 12.8912 11.5894 13.1677 10.894 13.1684ZM10.894 8.79668C10.5481 8.79668 10.21 8.89924 9.92243 9.09139C9.63485 9.28354 9.41072 9.55665 9.27836 9.87618C9.14601 10.1957 9.11138 10.5473 9.17885 10.8865C9.24633 11.2258 9.41287 11.5373 9.65744 11.7819C9.902 12.0265 10.2136 12.193 10.5528 12.2605C10.892 12.328 11.2436 12.2933 11.5632 12.161C11.8827 12.0286 12.1558 11.8045 12.3479 11.5169C12.5401 11.2293 12.6427 10.8912 12.6427 10.5454C12.6427 10.0816 12.4584 9.63681 12.1305 9.30886C11.8025 8.98092 11.3577 8.79668 10.894 8.79668ZM3.89914 13.1684C3.38035 13.1684 2.87321 13.0146 2.44185 12.7264C2.01049 12.4381 1.67429 12.0285 1.47575 11.5492C1.27722 11.0699 1.22528 10.5425 1.32649 10.0336C1.4277 9.52483 1.67752 9.05744 2.04436 8.6906C2.4112 8.32376 2.87859 8.07394 3.38741 7.97273C3.89623 7.87152 4.42364 7.92346 4.90294 8.12199C5.38224 8.32053 5.79191 8.65673 6.08013 9.08809C6.36836 9.51945 6.5222 10.0266 6.5222 10.5454C6.5215 11.2408 6.24492 11.9076 5.75315 12.3994C5.26139 12.8912 4.5946 13.1677 3.89914 13.1684ZM3.89914 8.79668C3.55328 8.79668 3.21519 8.89924 2.92761 9.09139C2.64004 9.28354 2.4159 9.55665 2.28355 9.87618C2.15119 10.1957 2.11656 10.5473 2.18404 10.8865C2.25151 11.2258 2.41806 11.5373 2.66262 11.7819C2.90718 12.0265 3.21877 12.193 3.55799 12.2605C3.8972 12.328 4.24881 12.2933 4.56834 12.161C4.88787 12.0286 5.16098 11.8045 5.35313 11.5169C5.54528 11.2293 5.64784 10.8912 5.64784 10.5454C5.64784 10.0816 5.46361 9.63681 5.13566 9.30886C4.80772 8.98092 4.36293 8.79668 3.89914 8.79668ZM8.70808 10.9826C8.59213 10.9826 8.48093 10.9365 8.39895 10.8545C8.31696 10.7725 8.2709 10.6613 8.2709 10.5454C8.2709 10.3135 8.17878 10.0911 8.01481 9.92712C7.85083 9.76315 7.62844 9.67103 7.39655 9.67103C7.16466 9.67103 6.94226 9.76315 6.77829 9.92712C6.61432 10.0911 6.5222 10.3135 6.5222 10.5454C6.5222 10.6613 6.47614 10.7725 6.39415 10.8545C6.31216 10.9365 6.20097 10.9826 6.08502 10.9826C5.96907 10.9826 5.85788 10.9365 5.77589 10.8545C5.6939 10.7725 5.64784 10.6613 5.64784 10.5454C5.64784 10.0816 5.83208 9.63681 6.16003 9.30886C6.48797 8.98092 6.93276 8.79668 7.39655 8.79668C7.86033 8.79668 8.30512 8.98092 8.63307 9.30886C8.96101 9.63681 9.14525 10.0816 9.14525 10.5454C9.14525 10.6613 9.09919 10.7725 9.01721 10.8545C8.93522 10.9365 8.82402 10.9826 8.70808 10.9826Z" fill="#613FDD"/>
</svg>
